<?xml version="1.0" encoding="UTF-8"?>
<svg version="1.1" xmlns="http://www.w3.org/2000/svg" width="512" height="512">
<path d="M0 0 C3.25221305 0.72452815 4.56603995 1.92086124 6.98474121 4.20059204 C7.85888672 5.021745 8.73303223 5.84289795 9.63366699 6.68893433 C10.62719143 7.65072719 11.61843881 8.61487601 12.60778809 9.58096313 C13.14615295 10.10551842 13.68451782 10.6300737 14.23919678 11.1705246 C18.69819596 15.53116584 23.10772857 19.94063251 27.51403809 24.35440063 C28.92970458 25.76939218 30.34551938 27.18423537 31.76147461 28.59893799 C34.70796477 31.54396353 37.65266278 34.49076594 40.59606934 37.43887329 C44.36990871 41.21844612 48.14827003 44.99346176 51.92795563 48.76718712 C54.84305379 51.67867745 57.75577323 54.59253809 60.66777039 57.50712967 C62.06091415 58.90094019 63.45480024 60.29400915 64.84944153 61.68632126 C66.79019817 63.62454379 68.72773008 65.56593303 70.66442871 67.50820923 C71.23997498 68.08173126 71.81552124 68.6552533 72.4085083 69.24615479 C78.8959437 75.76831552 78.8959437 75.76831552 79.17028809 80.76846313 C79.01149771 84.56700212 78.36258419 86.38039489 75.78088379 89.16143799 C75.14123688 89.85411396 74.50158997 90.54678993 73.84255981 91.26045609 C69.35942774 95.91558012 64.83654398 100.52709099 60.27575684 105.10586548 C59.14306763 106.24647257 58.01055505 107.38725509 56.87820435 108.52819824 C53.18760241 112.24479069 49.4917517 115.95613943 45.79528809 119.66690063 C44.51788782 120.94966707 43.24049324 122.23243916 41.96310425 123.51521683 C36.65158792 128.84831389 31.33865166 134.17998964 26.02198792 139.50795555 C18.42125445 147.1249605 10.82916742 154.75035805 3.24875546 162.38758886 C-2.09556166 167.77058998 -7.44941422 173.14398764 -12.810462 178.51032603 C-16.00766811 181.71118302 -19.20056484 184.91607721 -22.3833313 188.13129807 C-25.37333863 191.15136429 -28.37498617 194.15935289 -31.38594437 197.15852737 C-32.48716843 198.25953064 -33.58413704 199.36480963 -34.67643356 200.47467041 C-36.17085756 201.99180498 -37.68000593 203.49263054 -39.19372559 204.99047852 C-40.03360519 205.83366827 -40.8734848 206.67685802 -41.73881531 207.54559898 C-44.89895981 209.96967868 -47.49604681 210.83353384 -51.39221191 211.58096313 C-57.30453915 209.9248892 -60.78727519 206.73271532 -64.98205566 202.38174438 C-65.57144424 201.78669601 -66.16083282 201.19164764 -66.76808167 200.5785675 C-68.63163687 198.69278418 -70.48072576 196.79352226 -72.32971191 194.89346313 C-73.59765854 193.60543407 -74.8665301 192.31831482 -76.13635254 191.03213501 C-79.23243517 187.89216524 -82.31562904 184.74003663 -85.39221191 181.58096313 C-94.47407628 185.98290514 -101.38560488 194.45843797 -108.39221191 201.58096313 C-103.25081554 207.867522 -97.54399648 213.54618505 -91.787817 219.26052284 C-89.99938069 221.03608159 -88.21418727 222.81484561 -86.42976379 224.59443665 C-82.64922921 228.36361195 -78.86475022 232.12881125 -75.07971191 235.89346313 C-70.67442398 240.27514363 -66.27077116 244.65844209 -61.87128639 249.04594994 C-60.11114018 250.79960753 -58.34801502 252.55023245 -56.58476257 254.30076599 C-55.51221296 255.36968522 -54.43980229 256.43874389 -53.36755371 257.50796509 C-52.87563538 257.9947171 -52.38371704 258.48146912 -51.87689209 258.98297119 C-48.91844551 261.94095127 -47.56194462 263.52013375 -46.89221191 267.70596313 C-47.41729484 271.77535583 -47.7523666 272.40188409 -50.36486816 275.26065063 C-51.31740479 276.30454956 -51.31740479 276.30454956 -52.28918457 277.36953735 C-55.90549852 281.17225058 -59.59845061 284.89126687 -63.32971191 288.58096313 C-64.1089502 289.3556897 -64.88818848 290.13041626 -65.69104004 290.92861938 C-67.58913612 292.8150707 -69.4895434 294.69912559 -71.39221191 296.58096313 C-68.66292411 302.35174226 -64.43574043 306.7030501 -59.39221191 310.58096313 C-55.86898907 310.81199414 -54.58572821 310.58797786 -51.39221191 309.58096313 C-27.17539082 305.02820077 -3.06429834 308.53954594 17.60778809 322.58096313 C21.39061035 325.4539927 25.05078727 328.43274285 28.60778809 331.58096313 C29.1814209 332.0772522 29.75505371 332.57354126 30.34606934 333.08486938 C32.43189237 335.55815181 32.6813357 337.91925535 32.87306213 341.08364868 C32.5513081 344.11267092 31.79328635 345.04332581 29.73059082 347.24502563 C28.76788773 348.28131104 28.76788773 348.28131104 27.78573608 349.33853149 C27.06701324 350.07853394 26.34829041 350.81853638 25.60778809 351.58096313 C24.85063507 352.36157104 24.09348206 353.14217896 23.31338501 353.94644165 C20.73258754 356.57200027 18.12865259 359.17265312 15.51794434 361.76846313 C14.56365816 362.72087926 13.60959621 363.67352009 12.65574646 364.62637329 C10.17070839 367.10763239 7.68268012 369.58587104 5.19396973 372.06344604 C2.64451313 374.60258799 0.09796121 377.1446396 -2.44885254 379.68643188 C-7.42716822 384.65409196 -12.40865563 389.61855999 -17.39221191 394.58096313 C-16.74695557 395.36342407 -16.10169922 396.14588501 -15.43688965 396.95205688 C-12.71738847 400.44860478 -12.16210994 403.20902555 -12.39221191 407.58096313 C-13.59089949 410.48304885 -14.6658401 411.98910462 -17.07971191 413.95596313 C-20.593256 414.90556964 -23.96298711 414.6921086 -27.39221191 413.58096313 C-29.07820609 412.27215482 -30.74689698 410.94055657 -32.39221191 409.58096313 C-33.00164642 410.19261826 -33.61108093 410.80427338 -34.23898315 411.4344635 C-39.97516328 417.19065814 -45.71372952 422.94446082 -51.45500755 428.69557095 C-54.40675918 431.6525472 -57.35757089 434.61044901 -60.30627441 437.57046509 C-63.15051447 440.42554885 -65.99717104 443.27820227 -68.84553909 446.12916756 C-69.93329405 447.21877408 -71.02016666 448.30926217 -72.10615158 449.40063286 C-73.62416508 450.92587641 -75.14524979 452.44799111 -76.66711426 453.96939087 C-77.53315277 454.83764999 -78.39919128 455.70590912 -79.29147339 456.60047913 C-81.89258715 459.05269493 -82.96115899 459.51199467 -86.51721191 460.08096313 C-93.33401904 459.20137512 -96.80357197 454.65704818 -100.91174316 449.45596313 C-114.91373661 431.0108526 -121.76539041 408.32759929 -118.97814941 385.13565063 C-118.646737 383.00372897 -118.29854978 380.8742903 -117.92736816 378.74893188 C-117.7507666 377.7035022 -117.57416504 376.65807251 -117.39221191 375.58096313 C-117.14555786 374.62214233 -117.14555786 374.62214233 -116.8939209 373.64395142 C-116.24370705 370.61877635 -115.81160231 368.55785539 -117.43884277 365.81997681 C-118.98089396 364.10655835 -120.59101032 362.59388439 -122.32971191 361.08096313 C-122.90656738 360.54471313 -123.48342285 360.00846313 -124.07775879 359.45596313 C-125.4963711 358.14286744 -126.94180613 356.85885369 -128.39221191 355.58096313 C-132.14107748 357.13749385 -134.481762 359.45414643 -137.30627441 362.33486938 C-138.23182129 363.27137329 -139.15736816 364.2078772 -140.11096191 365.17276001 C-141.08006293 366.16265086 -142.04880905 367.15288928 -143.01721191 368.14346313 C-144.92286563 370.08547222 -146.83256822 372.02330501 -148.74377441 373.95986938 C-149.58762695 374.82168823 -150.43147949 375.68350708 -151.30090332 376.57144165 C-153.89298748 379.06215432 -154.94308194 379.50910234 -158.51721191 380.08096313 C-168.10321493 378.84405952 -176.3097801 366.79189952 -182.98596191 360.08486938 C-184.18500145 358.88396111 -185.38426468 357.68327613 -186.58374023 356.48280334 C-189.71601399 353.34674028 -192.84527101 350.20768424 -195.97387695 347.06796265 C-199.17658461 343.85496312 -202.38218099 340.64484842 -205.58752441 337.43447876 C-211.8585598 331.15276943 -218.12640715 324.86788956 -224.39221191 318.58096313 C-228.15893348 321.76498402 -231.88223783 324.9425822 -235.35705566 328.44815063 C-236.01125488 329.10557251 -236.6654541 329.76299438 -237.33947754 330.44033813 C-237.99625488 331.10549438 -238.65303223 331.77065063 -239.32971191 332.45596313 C-240.01355957 333.14432251 -240.69740723 333.83268188 -241.40197754 334.54190063 C-243.06772655 336.21929825 -244.73107411 337.89900104 -246.39221191 339.58096313 C-242.84357645 343.91885369 -239.10709426 347.91098809 -235.09924316 351.83096313 C-234.62356903 352.29639526 -234.1478949 352.76182739 -233.6578064 353.24136353 C-231.67403955 355.17993501 -229.6883966 357.11620219 -227.68835449 359.03799438 C-226.21179333 360.45970843 -224.74857093 361.89412401 -223.28674316 363.33096313 C-221.98507202 364.59166626 -221.98507202 364.59166626 -220.65710449 365.87783813 C-218.00023114 369.04878798 -216.56920625 371.60729695 -215.39221191 375.58096313 C-216.42603355 381.12038276 -218.2702962 384.08559369 -222.21720886 388.0408783 C-222.71217214 388.54364153 -223.20713542 389.04640476 -223.71709758 389.56440324 C-225.36886722 391.23602187 -227.03781752 392.88930572 -228.70739746 394.54312134 C-229.89932882 395.74183192 -231.09019476 396.9416027 -232.28007507 398.14234924 C-235.50836061 401.3933979 -238.75222541 404.62846851 -241.9998281 407.86020684 C-245.39933557 411.24704007 -248.78660924 414.64607335 -252.17585754 418.04316711 C-257.86913723 423.74553887 -263.57286789 429.43729753 -269.28259277 435.12319946 C-275.88010384 441.69350035 -282.45940903 448.28162 -289.02954644 454.87928516 C-294.67480186 460.54724306 -300.3297588 466.20538301 -305.99291259 471.85545796 C-309.37359162 475.22834885 -312.75081824 478.6045103 -316.11932945 481.98955727 C-319.28702513 485.17171473 -322.46673808 488.34135664 -325.6560688 491.50182533 C-326.82335792 492.66251293 -327.98643115 493.82745847 -329.14488983 494.99695969 C-330.72938858 496.5951615 -332.32855644 498.17710657 -333.93229675 499.75596619 C-334.82291652 500.64470082 -335.71353628 501.53343546 -336.63114452 502.44910145 C-339.8450958 504.9306416 -342.41837168 505.82877454 -346.39221191 506.58096313 C-352.58641866 504.89238656 -356.25438239 501.27781288 -360.67272949 496.77041626 C-361.3630426 496.08229355 -362.05335571 495.39417084 -362.7645874 494.68519592 C-365.0317188 492.42036607 -367.28427455 490.14161856 -369.53674316 487.86221313 C-371.11298138 486.28104887 -372.69003535 484.70069742 -374.26786804 483.12112427 C-377.56629945 479.81506468 -380.8581717 476.50266354 -384.14489746 473.18496704 C-388.36095988 468.9292497 -392.58779483 464.68444608 -396.81888294 460.44367218 C-400.85338034 456.39921067 -404.88289949 452.34980541 -408.91174316 448.29971313 C-409.6819813 447.52607925 -410.45221943 446.75244537 -411.24579811 445.95536804 C-413.41949382 443.77011283 -415.5896658 441.58142369 -417.75866699 439.39151001 C-418.40438156 438.74310654 -419.05009613 438.09470306 -419.71537781 437.426651 C-420.30541595 436.82945755 -420.8954541 436.2322641 -421.50337219 435.61697388 C-422.01601529 435.1000573 -422.52865839 434.58314072 -423.05683613 434.05056 C-426.28211128 430.5011065 -427.17400602 427.86934706 -426.98680687 423.20221043 C-426.23101218 419.87032076 -424.8943047 418.46365098 -422.55447388 415.98866272 C-421.32282942 414.67748128 -421.32282942 414.67748128 -420.06630325 413.33981133 C-419.18385311 412.42939142 -418.30140297 411.51897152 -417.39221191 410.58096313 C-416.09888506 409.24454112 -416.09888506 409.24454112 -414.77943039 407.88112068 C-411.90581555 404.94382121 -409.01043013 402.02954455 -406.10852051 399.12026978 C-405.00508658 398.01055264 -403.90183574 396.90065344 -402.79875183 395.79058838 C-399.21622138 392.18726883 -395.62858474 388.58905579 -392.04064941 384.99111938 C-390.79850826 383.74492387 -389.55639854 382.49869703 -388.31431961 381.2524395 C-382.48577754 375.40491613 -376.65487596 369.5597584 -370.8210243 363.71753222 C-364.10579904 356.99250369 -357.3989685 350.25924378 -350.69900453 343.51901156 C-345.50154183 338.29139133 -340.29642852 333.07146867 -335.08552229 327.8572492 C-331.98019905 324.749579 -328.87824938 321.63871119 -325.78437424 318.51963997 C-322.87920549 315.59118608 -319.96465362 312.67240731 -317.04268837 309.76071548 C-315.97459629 308.69311843 -314.90989978 307.62211133 -313.84894753 306.54741859 C-312.39620569 305.07692427 -310.93153218 303.61940657 -309.46334839 302.16435242 C-308.64818945 301.34680512 -307.83303051 300.52925783 -306.99316978 299.68693638 C-303.84951111 297.14154296 -301.20406452 295.9284425 -297.39221191 294.58096313 C-287.3174193 295.86710687 -278.77177201 308.07944174 -271.89221191 315.01846313 C-270.86901053 316.04669294 -269.84557459 317.07468939 -268.82189941 318.10244751 C-266.34263192 320.59260652 -263.86653654 323.08589147 -261.39221191 325.58096313 C-256.14046265 321.19653788 -251.25998718 316.57254221 -246.45471191 311.70596313 C-245.77086426 311.01760376 -245.0870166 310.32924438 -244.38244629 309.62002563 C-242.71669598 307.94262672 -241.0538083 306.26247368 -239.39221191 304.58096313 C-244.19078437 298.78834525 -249.3735933 293.51513968 -254.73596191 288.24502563 C-256.55786874 286.44063317 -258.3794741 284.63593627 -260.20080566 282.83096313 C-263.04793882 280.01476107 -265.89679263 277.20042311 -268.7520752 274.39248657 C-271.5244167 271.66269351 -274.28703887 268.92335742 -277.04846191 266.18252563 C-277.89549683 265.35411163 -278.74253174 264.52569763 -279.61523438 263.67218018 C-291.22490994 252.11256897 -298.23472671 239.23824067 -298.52502441 222.57315063 C-298.1686554 211.86111741 -294.9211397 203.14765075 -290.39221191 193.58096313 C-290.98759766 192.99081421 -291.5829834 192.40066528 -292.19641113 191.79263306 C-294.4087184 189.59739007 -296.61874895 187.39988723 -298.82727051 185.20083618 C-300.2521226 183.78347314 -301.67957604 182.36872674 -303.10705566 180.95401001 C-304.0029541 180.06133423 -304.89885254 179.16865845 -305.82189941 178.24893188 C-306.64931641 177.42675171 -307.4767334 176.60457153 -308.32922363 175.75747681 C-311.17814112 172.75178457 -312.32222775 171.03974821 -312.95471191 166.89346313 C-312.85109749 163.22311229 -311.89590533 161.57029896 -309.42858887 158.89126587 C-308.79103668 158.19620941 -308.1534845 157.50115295 -307.49661255 156.78503418 C-303.79518602 152.90829754 -300.04249789 149.08896106 -296.24768066 145.30361938 C-295.39668289 144.45166489 -294.54568512 143.59971039 -293.66889954 142.72193909 C-291.88429486 140.93665813 -290.09844367 139.15262242 -288.31140137 137.36978149 C-285.56699029 134.63076653 -282.82800759 131.88640361 -280.08947754 129.14151001 C-278.35086615 127.40355872 -276.61194496 125.66591728 -274.87268066 123.92861938 C-274.05188522 123.10579971 -273.23108978 122.28298004 -272.38542175 121.43522644 C-271.62735733 120.68031418 -270.86929291 119.92540192 -270.08825684 119.14761353 C-269.42098068 118.48113297 -268.75370453 117.8146524 -268.06620789 117.12797546 C-265.24148362 114.51752518 -262.57320885 113.92276571 -258.71643066 113.99893188 C-253.51702794 115.30096719 -250.0322386 119.86467384 -246.39221191 123.58096313 C-245.21810272 124.74671211 -244.04223265 125.91068949 -242.86486816 127.07315063 C-239.68568364 130.22142344 -236.53373257 133.39512635 -233.39221191 136.58096313 C-232.49760254 136.17104126 -231.60299316 135.76111938 -230.68127441 135.33877563 C-223.70316051 132.20230523 -217.07440411 129.40313755 -209.39221191 128.58096313 C-208.64197754 128.49846313 -207.89174316 128.41596313 -207.11877441 128.33096313 C-194.13028995 127.64054536 -180.92514772 132.17439012 -171.09500122 140.53468323 C-165.11466248 145.93193186 -159.34357906 151.49634633 -153.66564941 157.20986938 C-152.79195709 158.08497665 -151.91826477 158.96008392 -151.01809692 159.86170959 C-148.26541621 162.61992682 -145.51625866 165.38162451 -142.76721191 168.14346313 C-140.88622152 170.03005027 -139.00442692 171.9158328 -137.12268066 173.80166626 C-132.54318493 178.39210663 -127.96656578 182.98539919 -123.39221191 187.58096313 C-119.62549035 184.39694225 -115.902186 181.21934407 -112.42736816 177.71377563 C-111.77316895 177.05635376 -111.11896973 176.39893188 -110.44494629 175.72158813 C-109.78816895 175.05643188 -109.1313916 174.39127563 -108.45471191 173.70596313 C-107.42894043 172.67342407 -107.42894043 172.67342407 -106.38244629 171.62002563 C-104.71669727 169.94262802 -103.05334971 168.26292523 -101.39221191 166.58096313 C-104.94084738 162.24307258 -108.67732957 158.25093818 -112.68518066 154.33096313 C-113.1608548 153.86553101 -113.63652893 153.40009888 -114.12661743 152.92056274 C-116.11038428 150.98199126 -118.09602722 149.04572408 -120.09606934 147.12393188 C-121.5726305 145.70221784 -123.0358529 144.26780226 -124.49768066 142.83096313 C-125.36546143 141.99049438 -126.23324219 141.15002563 -127.12731934 140.28408813 C-129.80822287 137.08445852 -131.02023978 134.51347306 -132.39221191 130.58096313 C-131.11169557 120.55025174 -119.01649535 112.06185823 -112.18029785 105.23965454 C-111.06078808 104.11878724 -109.9414906 102.99770786 -108.8223877 101.87643433 C-105.80436127 98.85387801 -102.7832155 95.83445826 -99.76133251 92.81575823 C-96.59286433 89.64983357 -93.42684997 86.4814565 -90.26043701 83.31347656 C-84.9497127 78.0009377 -79.63689369 72.6905005 -74.32287598 67.3812561 C-68.17870423 61.24253963 -62.03816207 55.10021013 -55.89946532 48.95601904 C-50.62133064 43.67334959 -45.34125383 38.39262724 -40.05954194 33.11353433 C-36.90791784 29.96346918 -33.75697326 26.8127323 -30.60778046 23.66023636 C-27.65185623 20.70142767 -24.69350448 17.74506797 -21.73324585 14.79059601 C-20.6467642 13.70543826 -19.56113568 12.61942558 -18.47641754 11.53250504 C-16.99782641 10.05118828 -15.51620078 8.57297514 -14.03375244 7.09552002 C-13.20493435 6.26707895 -12.37611626 5.43863789 -11.52218246 4.58509254 C-7.74236733 1.02859329 -5.10491286 -0.23344578 0 0 Z M-4.80065918 25.87588501 C-5.85588071 26.9312658 -6.90833255 27.98942015 -7.95861816 29.04971313 C-8.78884743 29.88206482 -8.78884743 29.88206482 -9.635849 30.73123169 C-11.41115243 32.51215331 -13.1829562 34.29651268 -14.95471191 36.08096313 C-16.15435357 37.28561745 -17.35422039 38.49004758 -18.55432129 39.69424438 C-21.50290829 42.65388453 -24.44836018 45.61661324 -27.39221191 48.58096313 C-25.80821603 52.47491429 -23.15024248 55.09248549 -20.20812988 57.99209595 C-19.41765259 58.78301132 -19.41765259 58.78301132 -18.61120605 59.58990479 C-16.87363716 61.32608385 -15.12909877 63.05507714 -13.38439941 64.78408813 C-12.17612869 65.9886275 -10.96829969 67.19361011 -9.76089478 68.39901733 C-6.58584115 71.5664442 -3.40482669 74.72781827 -0.22253418 77.88796997 C3.02530884 81.11533402 6.26747942 84.34838541 9.51013184 87.58096313 C15.87047791 93.91987617 22.23713561 100.25240938 28.60778809 106.58096313 C32.45091039 104.79723468 35.092202 102.35471184 38.02966309 99.35440063 C38.78693695 98.59288193 38.78693695 98.59288193 39.55950928 97.815979 C41.16370905 96.20062471 42.76079664 94.57844104 44.35778809 92.95596313 C45.44716916 91.85654616 46.53700799 90.75758255 47.62731934 89.65908813 C50.29280693 86.97160294 52.95193952 84.27797292 55.60778809 81.58096313 C50.11347751 74.89565681 44.01858088 68.84609398 37.90075684 62.74111938 C36.76814931 61.60783732 35.63569018 60.47440692 34.50337219 59.34083557 C32.14404524 56.98004231 29.78293874 54.62104765 27.42053223 52.26333618 C24.38614021 49.23468026 21.35631262 46.20150381 18.32776928 43.16700077 C15.99710515 40.83273559 13.66408016 38.50084183 11.33031654 36.16967583 C10.2111697 35.05119749 9.09276915 33.93197192 7.97511864 32.81199837 C6.42172416 31.25608065 4.86518921 29.70337652 3.30773926 28.15151978 C1.97920174 26.82417564 1.97920174 26.82417564 0.62382507 25.47001648 C-2.04062633 22.88442912 -2.04062633 22.88442912 -4.80065918 25.87588501 Z M-44.89245605 65.96768188 C-45.98999516 67.06538027 -47.08476408 68.16585253 -48.17736816 69.26846313 C-48.75305038 69.8455603 -49.3287326 70.42265747 -49.92185974 71.01724243 C-51.76849226 72.86949343 -53.61162644 74.72518325 -55.45471191 76.58096313 C-56.70253069 77.83379453 -57.95057459 79.08640175 -59.19885254 80.33877563 C-62.26592848 83.41690508 -65.32987029 86.49812391 -68.39221191 89.58096313 C-62.89501933 96.27626179 -56.7826804 102.31792804 -50.65002441 108.42080688 C-49.51494786 109.55401513 -48.38009428 110.68744675 -47.24545288 111.8210907 C-44.27870447 114.78404648 -41.30896389 117.74398507 -38.33856201 120.70327759 C-35.29992331 123.7316317 -32.26416282 126.76286812 -29.22814941 129.79385376 C-23.28562932 135.72569403 -17.33994091 141.65434575 -11.39221191 147.58096313 C-7.21529061 144.06855739 -3.18316076 140.49472864 0.66638184 136.62002563 C1.54616699 135.73701782 2.42595215 134.85401001 3.33239746 133.94424438 C4.22765137 133.04061157 5.12290527 132.13697876 6.04528809 131.20596313 C6.9676123 130.2791272 7.88993652 129.35229126 8.84020996 128.39736938 C11.09837433 126.12750468 13.3541575 123.85532776 15.60778809 121.58096313 C10.11347751 114.89565681 4.01858088 108.84609398 -2.09924316 102.74111938 C-3.23185069 101.60783732 -4.36430982 100.47440692 -5.49662781 99.34083557 C-7.85595476 96.98004231 -10.21706126 94.62104765 -12.57946777 92.26333618 C-15.61385979 89.23468026 -18.64368738 86.20150381 -21.67223072 83.16700077 C-24.00289485 80.83273559 -26.33591984 78.50084183 -28.66968346 76.16967583 C-29.7888303 75.05119749 -30.90723085 73.93197192 -32.02488136 72.81199837 C-33.57827584 71.25608065 -35.13481079 69.70337652 -36.69226074 68.15151978 C-38.02079826 66.82417564 -38.02079826 66.82417564 -39.37617493 65.47001648 C-42.07307348 62.87368597 -42.07307348 62.87368597 -44.89245605 65.96768188 Z M-85.91418457 106.87588501 C-86.96669197 107.92871016 -88.01368551 108.98706503 -89.05627441 110.04971313 C-89.88438126 110.88206482 -89.88438126 110.88206482 -90.72921753 111.73123169 C-92.4966152 113.50985123 -94.25694474 115.29528906 -96.01721191 117.08096313 C-97.21206628 118.28584471 -98.40737308 119.4902778 -99.60314941 120.69424438 C-102.53811782 123.65129976 -105.4667642 126.61448972 -108.39221191 129.58096313 C-102.89501933 136.27626179 -96.7826804 142.31792804 -90.65002441 148.42080688 C-89.51494786 149.55401513 -88.38009428 150.68744675 -87.24545288 151.8210907 C-84.27870447 154.78404648 -81.30896389 157.74398507 -78.33856201 160.70327759 C-75.29992331 163.7316317 -72.26416282 166.76286812 -69.22814941 169.79385376 C-63.28562932 175.72569403 -57.33994091 181.65434575 -51.39221191 187.58096313 C-47.29728275 184.1338243 -43.32727646 180.63971778 -39.55236816 176.83877563 C-38.7177002 176.00088501 -37.88303223 175.16299438 -37.02307129 174.29971313 C-36.1755127 173.44377563 -35.3279541 172.58783813 -34.45471191 171.70596313 C-33.58008301 170.82682251 -32.7054541 169.94768188 -31.80432129 169.04190063 C-29.66464143 166.89052854 -27.52734594 164.73684521 -25.39221191 162.58096313 C-26.97614504 158.69855882 -29.61796122 156.07246999 -32.54455566 153.16983032 C-33.06832794 152.64255341 -33.59210022 152.11527649 -34.13174438 151.57202148 C-35.85941211 149.8355712 -37.59426881 148.10651502 -39.32971191 146.37783813 C-40.5330485 145.17315431 -41.73608807 143.96817372 -42.93884277 142.76290894 C-45.45749396 140.24131154 -47.97972176 137.72336174 -50.5045166 135.20791626 C-53.74640526 131.97744629 -56.97920078 128.73804861 -60.20939636 125.49589157 C-62.69012445 123.00795224 -65.17557678 120.52477667 -67.6625061 118.04303741 C-68.85693348 116.8499473 -70.04986842 115.6553612 -71.24130249 114.45928192 C-72.90271165 112.79281698 -74.57035582 111.1328592 -76.23986816 109.47451782 C-76.7344754 108.97586212 -77.22908264 108.47720642 -77.73867798 107.96343994 C-81.59484672 103.93934321 -81.59484672 103.93934321 -85.91418457 106.87588501 Z M-264.09777832 141.05947876 C-265.23492009 142.1969384 -266.3665442 143.33993032 -267.49377441 144.48721313 C-268.09023773 145.08650635 -268.68670105 145.68579956 -269.30123901 146.30325317 C-271.21129103 148.22452921 -273.11428518 150.15263209 -275.01721191 152.08096313 C-276.30842073 153.38219887 -277.60008165 154.68298614 -278.89221191 155.98330688 C-282.06415444 159.17733923 -285.22978263 162.37751252 -288.39221191 165.58096313 C-286.69635065 169.21399398 -284.65420703 171.52645359 -281.76721191 174.33096313 C-280.54131348 175.52979126 -280.54131348 175.52979126 -279.29064941 176.75283813 C-278.66416504 177.35611938 -278.03768066 177.95940063 -277.39221191 178.58096313 C-273.29112305 176.95940289 -270.56073025 174.00419283 -267.53283691 170.91690063 C-266.70897491 170.08879379 -266.70897491 170.08879379 -265.86846924 169.24395752 C-264.12161898 167.48594499 -262.3818659 165.72109423 -260.64221191 163.95596313 C-259.456476 162.76019233 -258.27028311 161.56487448 -257.08361816 160.37002563 C-254.18116106 157.4455606 -251.28504781 154.5149444 -248.39221191 151.58096313 C-250.07404035 147.99621197 -252.07140974 145.63344841 -254.89221191 142.83096313 C-255.68627441 142.03174438 -256.48033691 141.23252563 -257.29846191 140.40908813 C-260.54049317 137.57835935 -260.89969393 138.1297772 -264.09777832 141.05947876 Z M-239.02893066 168.91690063 C-239.91200394 169.79568878 -240.79507721 170.67447693 -241.70491028 171.57989502 C-243.55869717 173.42797247 -245.40991461 175.27863059 -247.25866699 177.13174438 C-250.07338427 179.94962837 -252.90119082 182.75390055 -255.73010254 185.55752563 C-257.5388558 187.3640061 -259.34682525 189.17127176 -261.15393066 190.97940063 C-262.41036629 192.22202164 -262.41036629 192.22202164 -263.69218445 193.48974609 C-272.49845406 202.36533082 -278.29150802 210.14168938 -278.76721191 222.95596313 C-278.69702188 229.0274015 -277.28921207 233.32549798 -274.39221191 238.58096313 C-269.11341704 234.17032586 -264.19592301 229.52263873 -259.34558105 224.64785767 C-258.57402679 223.87644943 -257.80247253 223.1050412 -257.00753784 222.31025696 C-254.47843473 219.78046169 -251.95288416 217.24715151 -249.42736816 214.71377563 C-247.66639211 212.95093292 -245.90519396 211.18831204 -244.14378357 209.42590332 C-239.52369124 204.80200532 -234.9066108 200.17511132 -230.29016113 195.5475769 C-225.57301923 190.81963324 -220.8524744 186.09508754 -216.13244629 181.37002563 C-206.88291156 172.10978799 -197.63646026 162.84647788 -188.39221191 153.58096313 C-191.8781463 149.82658354 -195.39650158 148.79876908 -200.47033691 148.24502563 C-217.72409851 148.03254089 -227.36092795 157.2361094 -239.02893066 168.91690063 Z M-175.98140144 167.92405701 C-176.61375143 168.55825058 -177.24610142 169.19244415 -177.89761353 169.84585571 C-178.98716339 170.93128159 -178.98716339 170.93128159 -180.09872437 172.03863525 C-180.89569733 172.84279877 -181.69267029 173.64696228 -182.51379395 174.47549438 C-183.77244263 175.73370499 -183.77244263 175.73370499 -185.05651855 177.01733398 C-187.3616163 179.3235891 -189.66220571 181.63423231 -191.96090174 183.94686508 C-194.36232761 186.36076491 -196.76939092 188.76902948 -199.1758728 191.17788696 C-203.73431525 195.74255401 -208.28763412 200.31229691 -212.83915317 204.88386631 C-218.02017113 210.08721284 -223.2068464 215.2849043 -228.3940146 220.48211861 C-239.06640613 231.17543432 -249.73163991 241.87586307 -260.39221191 252.58096313 C-259.06510933 255.52306149 -257.62431201 257.59710745 -255.34237671 259.87130737 C-254.71697998 260.49945343 -254.09158325 261.12759949 -253.44723511 261.77478027 C-252.76247101 262.45235382 -252.07770691 263.12992737 -251.37219238 263.82803345 C-250.65013611 264.55038177 -249.92807983 265.2727301 -249.18414307 266.01696777 C-246.79727203 268.40244593 -244.40339572 270.78076253 -242.00939941 273.15908813 C-240.35272413 274.81203316 -238.69648997 276.46542041 -237.04067993 278.11923218 C-232.68195274 282.47032402 -228.31725268 286.81537626 -223.95129395 291.15921021 C-219.49699687 295.59304685 -215.04835774 300.03255222 -210.59924316 304.47158813 C-201.86910336 313.18027973 -193.13264497 321.88260322 -184.39221191 330.58096313 C-181.25871505 329.19057554 -179.13705027 327.57354053 -176.722229 325.15148926 C-176.00994141 324.44195099 -175.29765381 323.73241272 -174.56378174 323.00137329 C-173.79270081 322.22310181 -173.02161987 321.44483032 -172.22717285 320.64297485 C-171.40728882 319.82338287 -170.58740479 319.00379089 -169.74267578 318.15936279 C-167.03254567 315.44783881 -164.32956943 312.72929821 -161.62658691 310.01065063 C-159.74943763 308.12977143 -157.87189991 306.24928826 -155.99383545 304.36932373 C-151.55586786 299.92514287 -147.12302267 295.47588892 -142.69199777 291.02478707 C-137.64637782 285.95680337 -132.59506975 280.89450542 -127.54327726 275.8326757 C-117.15325094 265.42175085 -106.7703812 255.00370808 -96.39221191 244.58096313 C-97.71778077 241.6453158 -99.15662219 239.56575075 -101.42858887 237.2906189 C-102.05109528 236.66247284 -102.67360168 236.03432678 -103.31497192 235.387146 C-103.99659393 234.70957245 -104.67821594 234.0319989 -105.38049316 233.33389282 C-106.09933685 232.61154449 -106.81818054 231.88919617 -107.55880737 231.1449585 C-109.93576858 228.75919573 -112.31996971 226.38082141 -114.70471191 224.00283813 C-116.35645362 222.34974963 -118.00789829 220.6963643 -119.65905762 219.04269409 C-123.11927287 215.57952995 -126.58308122 212.12001052 -130.04943848 208.66299438 C-134.50199927 204.22184571 -138.94549887 199.77175629 -143.3863678 195.31892014 C-146.79355774 191.90452051 -150.20547543 188.49487743 -153.61886597 185.08667755 C-155.2598676 183.44701396 -156.89937419 181.80585274 -158.53738403 180.16320038 C-160.82144196 177.87409 -163.11176635 175.59144445 -165.40393066 173.31045532 C-166.08555267 172.62478485 -166.76717468 171.93911438 -167.4694519 171.23266602 C-168.09195831 170.61579926 -168.71446472 169.9989325 -169.35583496 169.3633728 C-169.89709518 168.82286663 -170.43835541 168.28236046 -170.99601746 167.72547531 C-173.09276429 166.00669447 -173.94270714 166.20106691 -175.98140144 167.92405701 Z M-82.39221191 257.58096313 C-111.10221191 286.29096313 -139.81221191 315.00096313 -169.39221191 344.58096313 C-163.89757136 351.43133157 -163.89757136 351.43133157 -158.39221191 355.58096313 C-129.68221191 326.87096313 -100.97221191 298.16096313 -71.39221191 268.58096313 C-76.88685247 261.7305947 -76.88685247 261.7305947 -82.39221191 257.58096313 Z M-87.39221191 311.58096313 C-96.63221191 320.82096313 -105.87221191 330.06096313 -115.39221191 339.58096313 C-110.28150921 346.45969532 -110.28150921 346.45969532 -105.39221191 348.58096313 C-104.91912598 347.8913147 -104.44604004 347.20166626 -103.95861816 346.49111938 C-96.72526331 336.21214144 -88.94052741 328.42966067 -78.39221191 321.58096313 C-80.51347973 316.69166584 -80.51347973 316.69166584 -87.39221191 311.58096313 Z M-299.80065918 320.87588501 C-300.85588071 321.9312658 -301.90833255 322.98942015 -302.95861816 324.04971313 C-303.78884743 324.88206482 -303.78884743 324.88206482 -304.635849 325.73123169 C-306.41115243 327.51215331 -308.1829562 329.29651268 -309.95471191 331.08096313 C-311.15435357 332.28561745 -312.35422039 333.49004758 -313.55432129 334.69424438 C-316.50290829 337.65388453 -319.44836018 340.61661324 -322.39221191 343.58096313 C-320.80821603 347.47491429 -318.15024248 350.09248549 -315.20812988 352.99209595 C-314.41765259 353.78301132 -314.41765259 353.78301132 -313.61120605 354.58990479 C-311.87363716 356.32608385 -310.12909877 358.05507714 -308.38439941 359.78408813 C-307.17612869 360.9886275 -305.96829969 362.19361011 -304.76089478 363.39901733 C-301.58584115 366.5664442 -298.40482669 369.72781827 -295.22253418 372.88796997 C-291.97469116 376.11533402 -288.73252058 379.34838541 -285.48986816 382.58096313 C-279.12952209 388.91987617 -272.76286439 395.25240938 -266.39221191 401.58096313 C-262.54908961 399.79723468 -259.907798 397.35471184 -256.97033691 394.35440063 C-256.21306305 393.59288193 -256.21306305 393.59288193 -255.44049072 392.815979 C-253.83629095 391.20062471 -252.23920336 389.57844104 -250.64221191 387.95596313 C-249.55283084 386.85654616 -248.46299201 385.75758255 -247.37268066 384.65908813 C-244.70719307 381.97160294 -242.04806048 379.27797292 -239.39221191 376.58096313 C-244.88652249 369.89565681 -250.98141912 363.84609398 -257.09924316 357.74111938 C-258.23185069 356.60783732 -259.36430982 355.47440692 -260.49662781 354.34083557 C-262.85595476 351.98004231 -265.21706126 349.62104765 -267.57946777 347.26333618 C-270.61385979 344.23468026 -273.64368738 341.20150381 -276.67223072 338.16700077 C-279.00289485 335.83273559 -281.33591984 333.50084183 -283.66968346 331.16967583 C-284.7888303 330.05119749 -285.90723085 328.93197192 -287.02488136 327.81199837 C-288.57827584 326.25608065 -290.13481079 324.70337652 -291.69226074 323.15151978 C-293.02079826 321.82417564 -293.02079826 321.82417564 -294.37617493 320.47001648 C-297.04062633 317.88442912 -297.04062633 317.88442912 -299.80065918 320.87588501 Z M-81.39221191 348.58096313 C-82.0148291 349.1700647 -82.63744629 349.75916626 -83.27893066 350.36611938 C-95.68709487 363.05311874 -99.89704392 380.7061646 -99.74206543 397.86514282 C-99.37527201 411.62298357 -95.01467309 423.14727137 -87.39221191 434.58096313 C-84.13467351 433.15113328 -81.96681646 431.40669861 -79.45648193 428.89920044 C-78.68529526 428.13365341 -77.91410858 427.36810638 -77.11955261 426.57936096 C-75.86474846 425.31848412 -75.86474846 425.31848412 -74.58459473 424.03213501 C-73.6964357 423.14748062 -72.80827667 422.26282623 -71.89320374 421.35136414 C-69.46202971 418.92748208 -67.03543969 416.49918655 -64.61108875 414.06849098 C-62.07430566 411.52664352 -59.53264565 408.98968026 -56.99176025 406.45193481 C-52.72792133 402.19173292 -48.46831376 397.92733435 -44.21105957 393.66055298 C-39.28418449 388.7227799 -34.35012678 383.79227203 -29.41230321 378.86544943 C-25.17503029 374.63724022 -20.941652 370.40516129 -16.71152949 366.16979837 C-14.18401303 363.63915895 -11.65515297 361.109902 -9.12277985 358.5841217 C-6.30353949 355.77170936 -3.49248594 352.9512035 -0.68225098 350.12979126 C0.16238205 349.2892067 1.00701508 348.44862213 1.87724304 347.58256531 C2.63715042 346.81701828 3.3970578 346.05147125 4.17999268 345.26272583 C4.84586269 344.59610176 5.51173271 343.92947769 6.19778061 343.24265289 C7.82345514 341.69001624 7.82345514 341.69001624 7.60778809 339.58096313 C-19.96961232 318.64367432 -58.12167332 325.05885115 -81.39221191 348.58096313 Z M-339.89245605 360.96768188 C-340.98999516 362.06538027 -342.08476408 363.16585253 -343.17736816 364.26846313 C-343.75305038 364.8455603 -344.3287326 365.42265747 -344.92185974 366.01724243 C-346.76849226 367.86949343 -348.61162644 369.72518325 -350.45471191 371.58096313 C-351.70253069 372.83379453 -352.95057459 374.08640175 -354.19885254 375.33877563 C-357.26592848 378.41690508 -360.32987029 381.49812391 -363.39221191 384.58096313 C-357.89501933 391.27626179 -351.7826804 397.31792804 -345.65002441 403.42080688 C-344.51494786 404.55401513 -343.38009428 405.68744675 -342.24545288 406.8210907 C-339.27870447 409.78404648 -336.30896389 412.74398507 -333.33856201 415.70327759 C-330.29992331 418.7316317 -327.26416282 421.76286812 -324.22814941 424.79385376 C-318.28562932 430.72569403 -312.33994091 436.65434575 -306.39221191 442.58096313 C-302.21529061 439.06855739 -298.18316076 435.49472864 -294.33361816 431.62002563 C-293.45383301 430.73701782 -292.57404785 429.85401001 -291.66760254 428.94424438 C-290.77234863 428.04061157 -289.87709473 427.13697876 -288.95471191 426.20596313 C-288.0323877 425.2791272 -287.11006348 424.35229126 -286.15979004 423.39736938 C-283.90162567 421.12750468 -281.6458425 418.85532776 -279.39221191 416.58096313 C-284.88652249 409.89565681 -290.98141912 403.84609398 -297.09924316 397.74111938 C-298.23185069 396.60783732 -299.36430982 395.47440692 -300.49662781 394.34083557 C-302.85595476 391.98004231 -305.21706126 389.62104765 -307.57946777 387.26333618 C-310.61385979 384.23468026 -313.64368738 381.20150381 -316.67223072 378.16700077 C-319.00289485 375.83273559 -321.33591984 373.50084183 -323.66968346 371.16967583 C-324.7888303 370.05119749 -325.90723085 368.93197192 -327.02488136 367.81199837 C-328.57827584 366.25608065 -330.13481079 364.70337652 -331.69226074 363.15151978 C-333.02079826 361.82417564 -333.02079826 361.82417564 -334.37617493 360.47001648 C-337.07307348 357.87368597 -337.07307348 357.87368597 -339.89245605 360.96768188 Z M-380.91418457 401.87588501 C-381.96669197 402.92871016 -383.01368551 403.98706503 -384.05627441 405.04971313 C-384.88438126 405.88206482 -384.88438126 405.88206482 -385.72921753 406.73123169 C-387.4966152 408.50985123 -389.25694474 410.29528906 -391.01721191 412.08096313 C-392.21206628 413.28584471 -393.40737308 414.4902778 -394.60314941 415.69424438 C-397.53811782 418.65129976 -400.4667642 421.61448972 -403.39221191 424.58096313 C-397.89501933 431.27626179 -391.7826804 437.31792804 -385.65002441 443.42080688 C-384.51494786 444.55401513 -383.38009428 445.68744675 -382.24545288 446.8210907 C-379.27870447 449.78404648 -376.30896389 452.74398507 -373.33856201 455.70327759 C-370.29992331 458.7316317 -367.26416282 461.76286812 -364.22814941 464.79385376 C-358.28562932 470.72569403 -352.33994091 476.65434575 -346.39221191 482.58096313 C-342.29728275 479.1338243 -338.32727646 475.63971778 -334.55236816 471.83877563 C-333.7177002 471.00088501 -332.88303223 470.16299438 -332.02307129 469.29971313 C-331.1755127 468.44377563 -330.3279541 467.58783813 -329.45471191 466.70596313 C-328.58008301 465.82682251 -327.7054541 464.94768188 -326.80432129 464.04190063 C-324.66464143 461.89052854 -322.52734594 459.73684521 -320.39221191 457.58096313 C-321.97614504 453.69855882 -324.61796122 451.07246999 -327.54455566 448.16983032 C-328.06832794 447.64255341 -328.59210022 447.11527649 -329.13174438 446.57202148 C-330.85941211 444.8355712 -332.59426881 443.10651502 -334.32971191 441.37783813 C-335.5330485 440.17315431 -336.73608807 438.96817372 -337.93884277 437.76290894 C-340.45749396 435.24131154 -342.97972176 432.72336174 -345.5045166 430.20791626 C-348.74640526 426.97744629 -351.97920078 423.73804861 -355.20939636 420.49589157 C-357.69012445 418.00795224 -360.17557678 415.52477667 -362.6625061 413.04303741 C-363.85693348 411.8499473 -365.04986842 410.6553612 -366.24130249 409.45928192 C-367.90271165 407.79281698 -369.57035582 406.1328592 -371.23986816 404.47451782 C-371.7344754 403.97586212 -372.22908264 403.47720642 -372.73867798 402.96343994 C-376.59484672 398.93934321 -376.59484672 398.93934321 -380.91418457 401.87588501 Z " fill="#000000" transform="translate(426.3922119140625,-0.580963134765625)"/>
<path d="M0 0 C3.68148432 2.83024273 4.88506001 4.2453282 5.59375 8.8984375 C5.59341539 10.39095215 5.56050684 11.88371229 5.5 13.375 C5.4808252 14.17156006 5.46165039 14.96812012 5.44189453 15.78881836 C4.54146873 40.2049591 -5.51007365 64.05430166 -22 82 C-22.44714355 82.48952148 -22.89428711 82.97904297 -23.35498047 83.48339844 C-38.61308387 100.00384407 -57.38897398 110.30317671 -79 116 C-79.92941406 116.24621094 -80.85882813 116.49242187 -81.81640625 116.74609375 C-87.61113947 118.02889729 -93.45921158 118.28319051 -99.375 118.4375 C-100.1489209 118.47206299 -100.9228418 118.50662598 -101.72021484 118.54223633 C-105.95654268 118.5731618 -107.52854868 118.37122151 -110.9765625 115.65625 C-113.33977703 112.55396065 -114 110.89473629 -114 107 C-112.90151959 103.99363256 -112.08859289 101.78029466 -109.44140625 99.8828125 C-105.74653778 98.54674806 -102.02328344 98.42717168 -98.125 98.125 C-77.60407695 96.22964984 -58.81227927 88.83195511 -43.77734375 74.50390625 C-42 73 -42 73 -40 73 C-39.73316406 72.40703125 -39.46632813 71.8140625 -39.19140625 71.203125 C-37.97934963 68.96181375 -36.72064083 67.55421814 -34.9375 65.75 C-20.90508051 49.95986617 -15.45332834 29.23190706 -14.34375 8.59375 C-13.98980952 5.9231082 -13.45402008 4.25572293 -12 2 C-7.71214737 -0.82608469 -4.91577196 -1.67345428 0 0 Z " fill="#000000" transform="translate(507,394)"/>
<path d="M0 0 C2.875 1.6875 2.875 1.6875 5 5 C7.59086107 21.42380625 1.30263079 39.41863703 -7.9140625 52.7734375 C-9.85177094 55.28242254 -11.87344958 57.64960217 -14 60 C-14.66515625 60.75796875 -15.3303125 61.5159375 -16.015625 62.296875 C-29.68725688 76.98122035 -48.41344883 84.65228303 -68.3125 85.4375 C-72.754101 85.36508259 -74.51877116 85.30871284 -78.3125 82.875 C-80.20160526 79.65652438 -81 77.73921586 -81 74 C-79.47126129 70.02527937 -78.57219503 68.38146335 -75 66 C-72.98217773 65.56103516 -72.98217773 65.56103516 -70.68359375 65.2890625 C-69.8416748 65.18110352 -68.99975586 65.07314453 -68.13232422 64.96191406 C-67.24303223 64.85073242 -66.35374023 64.73955078 -65.4375 64.625 C-51.18404377 62.63543925 -39.8652562 57.96139578 -30 47 C-29.53207031 46.52433594 -29.06414062 46.04867187 -28.58203125 45.55859375 C-19.15922865 35.50598944 -15.49909695 22.42997085 -14.625 8.9375 C-13.88662146 4.28571519 -12.69916775 2.81841352 -9 0 C-5.37580435 -1.20806522 -3.66716248 -1.0268055 0 0 Z " fill="#000000" transform="translate(474,394)"/>
<path d="M0 0 C2.25726011 1.89121793 3.68646424 3.37292849 5 6 C5.9038522 18.20200475 1.7931673 28.74234075 -5.74609375 38.1875 C-13.38836446 46.57652065 -23.95959367 51.25871891 -35.19140625 52.1796875 C-38.90266319 52.30271259 -42.0590261 52.39634911 -45 50 C-47.10300954 46.8092269 -48 44.77523843 -48 40.9375 C-46.62430863 36.89640659 -45.52343552 35.50705989 -42 33 C-38.72446631 32.0908376 -35.4442827 31.41423098 -32.109375 30.7578125 C-28.26519376 29.82091406 -26.07463833 28.40985167 -23 26 C-22.34 26 -21.68 26 -21 26 C-17.51240694 19.29309026 -15.43670824 13.08255404 -13.94140625 5.671875 C-12.83769679 2.53935521 -11.8424465 1.6363991 -9 0 C-5.41563853 -1.19478716 -3.63093708 -0.96330984 0 0 Z " fill="#000000" transform="translate(441,394)"/>
</svg>
